<?xml version="1.0" encoding="utf-8"?>
<!-- Generator: Adobe Illustrator 24.0.1, SVG Export Plug-In . SVG Version: 6.00 Build 0)  -->
<svg version="1.1" xmlns="http://www.w3.org/2000/svg" xmlns:xlink="http://www.w3.org/1999/xlink" x="0px" y="0px"
	 viewBox="0 0 32 32" style="enable-background:new 0 0 32 32;" xml:space="preserve">
<style type="text/css">
	.st0{fill:#1E1E1E;}
</style>
<g id="Layer_1">
</g>
<g id="Layer_2">
	<g>
		<path class="st0" d="M6.1,0h-5C0.5,0,0,0.5,0,1.1v5c0,0.6,0.5,1.1,1.1,1.1h5c0.6,0,1.1-0.5,1.1-1.1v-5C7.2,0.5,6.7,0,6.1,0z"/>
		<path class="st0" d="M30.9,1.1H11.5c-0.6,0-1.1,0.5-1.1,1.1v2.7c0,0.6,0.5,1.1,1.1,1.1h19.4C31.5,6,32,5.5,32,4.9V2.2
			C32,1.6,31.5,1.1,30.9,1.1z"/>
		<path class="st0" d="M6.1,12.4h-5c-0.6,0-1.1,0.5-1.1,1.1v5c0,0.6,0.5,1.1,1.1,1.1h5c0.6,0,1.1-0.5,1.1-1.1v-5
			C7.2,12.9,6.7,12.4,6.1,12.4z"/>
		<path class="st0" d="M30.9,13.6H11.5c-0.6,0-1.1,0.5-1.1,1.1v2.7c0,0.6,0.5,1.1,1.1,1.1h19.4c0.6,0,1.1-0.5,1.1-1.1v-2.7
			C32,14.1,31.5,13.6,30.9,13.6z"/>
		<path class="st0" d="M6.1,24.8h-5c-0.6,0-1.1,0.5-1.1,1.1v5C0,31.5,0.5,32,1.1,32h5c0.6,0,1.1-0.5,1.1-1.1v-5
			C7.2,25.3,6.7,24.8,6.1,24.8z"/>
		<path class="st0" d="M30.9,26H11.5c-0.6,0-1.1,0.5-1.1,1.1v2.7c0,0.6,0.5,1.1,1.1,1.1h19.4c0.6,0,1.1-0.5,1.1-1.1v-2.7
			C32,26.5,31.5,26,30.9,26z"/>
	</g>
</g>
</svg>
