<?xml version="1.0" encoding="utf-8"?>
<!-- Generator: Adobe Illustrator 24.0.1, SVG Export Plug-In . SVG Version: 6.00 Build 0)  -->
<svg version="1.1" xmlns="http://www.w3.org/2000/svg" xmlns:xlink="http://www.w3.org/1999/xlink" x="0px" y="0px"
	 viewBox="0 0 32 32" style="enable-background:new 0 0 32 32;" xml:space="preserve">
<style type="text/css">
	.st0{fill:#1E1E1E;}
</style>
<g id="Layer_1">
</g>
<g id="Layer_2">
	<g>
		<path class="st0" d="M7.9,0H1C0.5,0,0,0.5,0,1v7c0,0.6,0.5,1,1,1h6.9c0.6,0,1-0.5,1-1V1C9,0.5,8.5,0,7.9,0z"/>
		<path class="st0" d="M7.9,11.5H1c-0.6,0-1,0.5-1,1v7c0,0.6,0.5,1,1,1h6.9c0.6,0,1-0.5,1-1v-7C9,12,8.5,11.5,7.9,11.5z"/>
		<path class="st0" d="M7.9,23H1c-0.6,0-1,0.5-1,1v7c0,0.6,0.5,1,1,1h6.9c0.6,0,1-0.5,1-1v-7C9,23.5,8.5,23,7.9,23z"/>
		<path class="st0" d="M19.5,0h-6.9c-0.6,0-1,0.5-1,1v7c0,0.6,0.5,1,1,1h6.9c0.6,0,1-0.5,1-1V1C20.5,0.5,20,0,19.5,0z"/>
		<path class="st0" d="M19.5,11.5h-6.9c-0.6,0-1,0.5-1,1v7c0,0.6,0.5,1,1,1h6.9c0.6,0,1-0.5,1-1v-7C20.5,12,20,11.5,19.5,11.5z"/>
		<path class="st0" d="M19.5,23h-6.9c-0.6,0-1,0.5-1,1v7c0,0.6,0.5,1,1,1h6.9c0.6,0,1-0.5,1-1v-7C20.5,23.5,20,23,19.5,23z"/>
		<path class="st0" d="M31,0h-6.9c-0.6,0-1,0.5-1,1v7c0,0.6,0.5,1,1,1H31c0.6,0,1-0.5,1-1V1C32,0.5,31.5,0,31,0z"/>
		<path class="st0" d="M31,11.5h-6.9c-0.6,0-1,0.5-1,1v7c0,0.6,0.5,1,1,1H31c0.6,0,1-0.5,1-1v-7C32,12,31.5,11.5,31,11.5z"/>
		<path class="st0" d="M31,23h-6.9c-0.6,0-1,0.5-1,1v7c0,0.6,0.5,1,1,1H31c0.6,0,1-0.5,1-1v-7C32,23.5,31.5,23,31,23z"/>
	</g>
</g>
</svg>
