<?xml version="1.0" encoding="utf-8"?>
<!-- Generator: Adobe Illustrator 24.0.1, SVG Export Plug-In . SVG Version: 6.00 Build 0)  -->
<svg version="1.1" id="Layer_1" xmlns="http://www.w3.org/2000/svg" xmlns:xlink="http://www.w3.org/1999/xlink" x="0px" y="0px"
	 viewBox="0 0 186 52.5" style="enable-background:new 0 0 186 52.5;" xml:space="preserve">
<style type="text/css">
	.st0{fill:#221F1F;}
	.st1{fill:#EB2127;}
</style>
<g>
	<polygon class="st0" points="125,28.5 122.7,9.3 111.8,9.3 111.4,42.5 119.2,42.5 119.2,18.2 122.7,42.5 127.4,42.5 130.6,17.3 
		130.6,42.5 137.6,42.5 137.6,9.3 126.7,9.3 	"/>
	<path class="st0" d="M77.2,37.5h-2.7v5.1h2.7h4.2c2.3,0,4.2-1.9,4.2-4.2v-29h-8.4V37.5z"/>
	<path class="st0" d="M99.5,37.5h-2.1V9.3H89v29c0,2.3,1.9,4.2,4.2,4.2h3.6h0.6h2.1h0.6h3.6c2.3,0,4.2-1.9,4.2-4.2v-29h-8.4V37.5z"
		/>
	<path class="st0" d="M153.4,9.3h-11.9v33.2h8.1V29.3h3.9c3.2,0,5.8-2.6,5.8-5.8v-8.3C159.2,11.9,156.6,9.3,153.4,9.3z M153.3,20.4
		c0,2-1.6,3.6-3.6,3.6v-9.3c1,0,1.9,0.4,2.6,1.1c0.7,0.7,1.1,1.6,1.1,2.6V20.4z"/>
</g>
<g>
	<polygon class="st1" points="23.6,33.6 21.4,9.3 12.2,9.3 10,34.5 7.7,9.3 0,9.3 3.9,42.5 14.8,42.5 17,23.3 18.8,42.5 30,42.5 
		33.6,9.3 25.5,9.3 	"/>
	<polygon class="st1" points="35.5,42.5 50.1,42.5 50.1,35.7 43.5,35.7 43.5,28.8 49.1,28.8 49.1,22.3 43.5,22.3 43.5,15.8 
		50.1,15.8 50.1,9.3 35.5,9.3 	"/>
	<path class="st1" d="M65.4,24.7c1.2,0,6.3-0.7,6.3-7.6c0-7.8-6.5-7.8-6.5-7.8H53.1v33.2h12.1c0,0,7.2,0.6,7.2-8.9
		C72.4,25.2,66.7,24.7,65.4,24.7z M64.3,34.3c0,1.8-1.4,3.2-3.2,3.2V27.4c0.9,0,1.7,0.4,2.2,0.9c0.6,0.6,0.9,1.4,0.9,2.2V34.3z
		 M64.3,19.6c0,1.8-1.4,3.2-3.2,3.2v-8.1c0.9,0,1.7,0.4,2.2,0.9c0.6,0.6,0.9,1.4,0.9,2.2V19.6z"/>
	<polygon class="st1" points="155.9,46.7 168.7,52.5 179.6,15.4 171.7,12.4 	"/>
	<polygon class="st1" points="175.6,0 171.4,9.3 181.9,13.4 186,4.3 	"/>
</g>
</svg>
